<?xml version="1.0" encoding="UTF-8" standalone="no"?>
<!-- Created with Inkscape (http://www.inkscape.org/) -->

<svg
   xmlns:dc="http://purl.org/dc/elements/1.1/"
   xmlns:cc="http://creativecommons.org/ns#"
   xmlns:rdf="http://www.w3.org/1999/02/22-rdf-syntax-ns#"
   xmlns:svg="http://www.w3.org/2000/svg"
   xmlns="http://www.w3.org/2000/svg"
   xmlns:sodipodi="http://sodipodi.sourceforge.net/DTD/sodipodi-0.dtd"
   xmlns:inkscape="http://www.inkscape.org/namespaces/inkscape"
   width="48"
   height="48"
   viewBox="0 0 48.000001 48.000001"
   id="svg2"
   version="1.1"
   inkscape:version="0.91 r13725"
   sodipodi:docname="icon.svg">
  <defs
     id="defs4" />
  <sodipodi:namedview
     id="base"
     pagecolor="#ffffff"
     bordercolor="#666666"
     borderopacity="1.0"
     inkscape:pageopacity="0.0"
     inkscape:pageshadow="2"
     inkscape:zoom="17.125"
     inkscape:cx="14.773723"
     inkscape:cy="24"
     inkscape:document-units="px"
     inkscape:current-layer="layer1"
     showgrid="false"
     units="px"
     inkscape:window-width="1920"
     inkscape:window-height="1014"
     inkscape:window-x="0"
     inkscape:window-y="459"
     inkscape:window-maximized="1" />
  <metadata
     id="metadata7">
    <rdf:RDF>
      <cc:Work
         rdf:about="">
        <dc:format>image/svg+xml</dc:format>
        <dc:type
           rdf:resource="http://purl.org/dc/dcmitype/StillImage" />
        <dc:title></dc:title>
      </cc:Work>
    </rdf:RDF>
  </metadata>
  <g
     inkscape:label="Layer 1"
     inkscape:groupmode="layer"
     id="layer1"
     transform="translate(0,-1004.3622)">
    <rect
       style="fill:#000000;fill-rule:evenodd;stroke:none;stroke-width:1px;stroke-linecap:butt;stroke-linejoin:miter;stroke-opacity:1"
       id="rect3338"
       width="48"
       height="48"
       x="-1052.3622"
       y="0.1331255"
       transform="matrix(0,-1,1,0,0,0)" />
    <path
       id="path4144-3"
       style="fill:#ffffff;fill-opacity:1;stroke:none"
       d="m 39.124085,1024.6927 3.169624,1.8489 3.169623,1.8488 -3.185962,1.8206 -3.185962,1.8205 0.01634,-3.6694 z m -30.2481703,7.3389 -3.1696236,-1.8489 -3.1696235,-1.8488 3.1859623,-1.8206 3.1859621,-1.8205 -0.016339,3.6694 z m -2.1605839,-5.4504 34.8029182,0 0,3.562 -34.8029182,0 z"
       inkscape:connector-curvature="0" />
    <path
       id="path4144-3-9"
       style="fill:#ffffff;fill-opacity:1;stroke:none"
       d="m 20.463675,1013.2381 1.8489,-3.1697 1.8488,-3.1696 1.8206,3.186 1.8205,3.1859 -3.6694,-0.016 z m 7.3389,30.2481 -1.8489,3.1697 -1.8488,3.1696 -1.8206,-3.186 -1.8205,-3.1859 3.6694,0.016 z m -5.4504,2.1606 0,-34.8029 3.562,0 0,34.8029 z"
       inkscape:connector-curvature="0" />
  </g>
</svg>
